<?xml version="1.0" standalone="no"?>
<!DOCTYPE svg PUBLIC "-//W3C//DTD SVG 20010904//EN"
 "http://www.w3.org/TR/2001/REC-SVG-20010904/DTD/svg10.dtd">
<svg version="1.0" xmlns="http://www.w3.org/2000/svg"
 width="600.000000pt" height="600.000000pt" viewBox="0 0 600.000000 600.000000"
 preserveAspectRatio="xMidYMid meet">
<metadata>
Created by potrace 1.13, written by Peter Selinger 2001-2015
</metadata>
<g transform="translate(0.000000,600.000000) scale(0.100000,-0.100000)"
fill="#000000" stroke="none">
<path d="M5363 5750 c-182 -15 -405 -76 -532 -146 -155 -85 -374 -287 -590
-543 -380 -451 -784 -1054 -1536 -2291 -534 -877 -623 -1005 -731 -1046 -146
-56 -311 62 -614 436 -185 228 -317 360 -400 399 -75 35 -111 38 -230 15 -285
-54 -588 -239 -671 -411 -36 -74 -37 -151 -5 -218 30 -60 58 -87 556 -545 737
-678 954 -860 1168 -978 162 -89 307 -106 423 -49 168 82 305 260 679 882 403
669 647 1055 903 1430 589 860 1216 1655 1997 2531 83 93 160 188 171 211 25
51 27 119 5 161 -61 118 -307 185 -593 162z"/>
</g>
</svg>
