<?xml version="1.0" standalone="no"?>
<!DOCTYPE svg PUBLIC "-//W3C//DTD SVG 20010904//EN"
 "http://www.w3.org/TR/2001/REC-SVG-20010904/DTD/svg10.dtd">
<svg version="1.0" xmlns="http://www.w3.org/2000/svg"
 width="623.000000pt" height="1013.000000pt" viewBox="0 0 623.000000 1013.000000"
 preserveAspectRatio="xMidYMid meet">
<metadata>
Created by potrace 1.13, written by Peter Selinger 2001-2015
</metadata>
<g transform="translate(0.000000,1013.000000) scale(0.100000,-0.100000)"
fill="#000000" stroke="none">
<path d="M2488 9583 l-3 -368 -90 -7 c-49 -4 -104 -10 -122 -13 l-31 -6 21
-64 21 -64 110 -3 111 -3 -80 -59 c-44 -32 -84 -62 -89 -67 -4 -4 6 -51 24
-104 18 -53 30 -98 27 -101 -2 -2 -31 15 -63 39 -119 87 -99 86 -194 17 -46
-33 -85 -58 -88 -56 -2 3 10 48 28 101 18 53 28 100 24 104 -5 5 -45 35 -89
67 l-80 59 111 3 111 3 17 55 c10 31 16 58 13 60 -7 7 -167 -26 -287 -61 -220
-63 -456 -170 -637 -287 -84 -54 -94 -64 -89 -84 7 -27 4 -29 -23 -12 -17 10
-32 2 -117 -68 -307 -249 -510 -527 -617 -844 -37 -109 -59 -201 -36 -150 10
23 14 17 46 -77 l35 -103 104 0 c57 0 104 -4 104 -9 0 -5 -36 -35 -80 -67 -44
-31 -80 -62 -80 -69 0 -6 13 -51 30 -100 16 -49 28 -91 25 -93 -2 -3 -43 23
-90 57 l-85 62 -35 -27 c-19 -14 -35 -34 -35 -43 1 -137 50 -531 70 -556 4 -5
22 -54 39 -107 l32 -97 112 -3 112 -3 -87 -63 c-49 -35 -88 -70 -88 -78 0 -25
89 -194 154 -292 l61 -92 105 2 104 3 31 98 c18 53 34 99 37 102 2 2 19 -43
38 -100 l34 -105 110 0 110 0 -85 -61 c-46 -34 -86 -63 -89 -66 -2 -2 11 -49
29 -104 18 -55 31 -102 29 -104 -1 -2 -42 25 -89 60 -81 60 -88 63 -108 49
-11 -8 -21 -19 -21 -24 0 -12 148 -135 237 -197 40 -28 69 -54 65 -58 -4 -5
-2 -5 4 -2 14 8 66 -27 57 -38 -5 -4 -2 -5 5 -1 7 4 10 12 7 17 -4 5 38 9 103
9 l109 0 28 95 c15 53 32 98 36 100 4 3 22 -40 40 -95 l33 -99 111 -3 110 -3
-87 -63 c-49 -35 -88 -67 -88 -71 0 -23 25 -78 42 -93 11 -10 17 -18 13 -18
-4 0 -66 27 -138 61 -113 52 -172 77 -144 62 4 -3 7 -11 7 -19 0 -8 9 -14 20
-14 11 0 20 -4 20 -10 0 -5 8 -10 18 -10 10 0 24 -9 32 -20 8 -11 25 -20 37
-20 13 0 23 -4 23 -10 0 -5 9 -10 20 -10 11 0 20 -4 20 -10 0 -5 9 -10 20 -10
11 0 20 -4 20 -10 0 -5 9 -10 20 -10 11 0 20 -4 20 -10 0 -5 14 -10 30 -10 17
0 30 -4 30 -10 0 -5 9 -10 20 -10 11 0 20 -4 20 -10 0 -5 11 -10 25 -10 14 0
25 -4 25 -10 0 -5 14 -10 30 -10 17 0 30 -4 30 -10 0 -5 9 -10 20 -10 11 0 20
-7 20 -15 0 -10 10 -15 30 -15 17 0 30 -4 30 -10 0 -5 16 -10 35 -10 19 0 35
-4 35 -10 0 -5 14 -10 30 -10 17 0 30 -4 30 -10 0 -5 14 -10 30 -10 17 0 30
-4 30 -10 0 -5 18 -10 40 -10 22 0 40 -4 40 -10 0 -5 16 -10 35 -10 19 0 35
-4 35 -10 0 -5 18 -10 40 -10 l40 0 0 -40 0 -40 1441 0 1441 0 -17 28 c-31 48
-122 155 -179 212 -44 42 -58 52 -68 42 -19 -19 -28 -14 -19 12 10 24 0 35
-129 137 -226 178 -620 400 -940 529 -160 65 -335 130 -348 130 -5 0 -36 -20
-70 -45 -55 -40 -61 -47 -53 -68 13 -35 60 -187 57 -187 -1 0 -42 29 -90 64
l-89 65 -86 -64 c-47 -35 -88 -62 -89 -60 -2 2 11 49 29 104 18 55 31 102 29
104 -3 3 -43 32 -89 66 l-85 61 110 0 110 0 34 104 c18 58 37 103 42 100 4 -3
8 -38 8 -79 0 -65 2 -74 20 -80 11 -3 25 -15 30 -26 7 -12 21 -19 38 -19 21 0
24 2 12 10 -10 6 -11 10 -2 10 9 0 12 167 12 800 0 527 3 800 10 800 6 0 10
11 10 25 0 26 39 75 60 75 5 0 10 5 10 10 0 15 137 13 143 -2 2 -7 7 -10 11
-7 4 4 -5 22 -20 40 -14 19 -3 9 25 -21 27 -30 67 -79 88 -108 30 -41 43 -52
62 -50 21 3 28 15 56 103 19 60 35 94 39 85 3 -8 19 -53 34 -100 l29 -85 106
-3 c59 -1 107 -5 107 -9 0 -19 -60 -55 -132 -78 -46 -15 -86 -30 -91 -32 -9
-5 18 -33 32 -33 6 0 11 -4 11 -10 0 -5 9 -10 20 -10 11 0 20 -4 20 -10 0 -6
37 -10 90 -10 53 0 90 4 90 10 0 6 16 10 35 10 19 0 35 5 35 10 0 6 14 10 30
10 17 0 30 5 30 10 0 6 18 10 40 10 22 0 40 5 40 10 0 6 16 10 35 10 19 0 35
5 35 10 0 6 14 10 30 10 17 0 30 5 30 10 0 6 14 10 30 10 17 0 30 5 30 10 0 6
14 10 30 10 17 0 30 5 30 10 0 6 20 10 45 10 25 0 45 5 45 10 0 6 14 10 30 10
20 0 30 5 30 15 0 10 10 15 30 15 17 0 30 5 30 10 0 6 14 10 30 10 17 0 30 5
30 10 0 6 16 10 35 10 19 0 35 5 35 10 0 6 18 10 40 10 22 0 40 5 40 10 0 6
14 10 30 10 17 0 30 5 30 10 0 6 14 10 30 10 17 0 30 5 30 10 0 6 16 10 35 10
19 0 35 5 35 10 0 6 7 10 15 10 20 0 65 45 65 65 0 8 5 15 10 15 6 0 10 11 10
25 0 14 -4 25 -10 25 -5 0 -10 15 -11 33 0 27 -2 29 -9 12 l-9 -20 -1 20 c-1
11 -2 28 -1 38 1 9 -4 17 -13 17 -18 0 -35 29 -28 49 2 8 0 11 -5 8 -6 -4 -27
21 -48 56 -47 77 -188 277 -196 277 -3 0 -29 -18 -59 -40 -29 -22 -55 -38 -57
-37 -1 2 9 38 23 80 16 47 22 82 17 91 -39 68 -294 309 -435 409 l-67 48 -69
-51 c-39 -27 -72 -50 -75 -50 -3 0 6 35 19 78 13 42 24 80 24 84 0 3 -64 38
-142 77 -231 114 -472 187 -763 231 -66 10 -108 19 -92 19 l27 1 0 210 c0 133
-4 210 -10 210 -5 0 -10 12 -10 26 0 16 -12 37 -30 54 -16 15 -30 33 -30 39 0
6 -7 11 -15 11 -11 0 -15 -19 -18 -87 -1 -49 -4 -6 -5 95 l-2 182 -475 0 -475
0 -2 -367z m378 94 l31 -92 109 -5 109 -5 -87 -63 c-49 -35 -88 -64 -88 -66 0
-1 14 -42 30 -91 17 -49 30 -95 30 -102 0 -8 -37 14 -82 47 -45 33 -87 60 -93
60 -5 -1 -46 -27 -90 -60 -44 -32 -81 -57 -83 -55 -2 2 10 47 28 99 17 53 29
100 25 106 -3 5 -42 36 -87 67 l-80 58 109 3 109 3 33 100 c18 55 36 98 39 94
4 -3 21 -48 38 -98z m609 -515 l31 -97 107 -3 c59 -1 107 -6 107 -10 0 -4 -31
-29 -68 -55 -37 -26 -75 -54 -84 -61 -17 -12 -16 -19 17 -115 24 -73 30 -101
20 -98 -7 3 -48 31 -89 62 -47 34 -81 53 -89 49 -6 -5 -45 -32 -85 -62 -41
-30 -75 -52 -78 -50 -2 3 10 44 26 93 17 49 30 94 30 101 0 6 -39 40 -87 75
l-88 64 112 3 112 3 33 99 c18 55 35 100 38 100 3 0 19 -44 35 -98z m-1835
-527 l33 -104 109 -3 109 -3 -77 -55 c-42 -30 -81 -58 -86 -61 -6 -4 3 -46 21
-106 17 -55 31 -103 31 -107 0 -5 -100 64 -165 115 -6 4 -46 -18 -93 -53 -46
-33 -86 -58 -89 -55 -3 3 9 47 26 98 17 50 28 96 25 100 -3 5 -41 35 -86 66
l-80 58 108 5 107 5 35 103 c18 56 35 102 37 102 1 0 17 -47 35 -105z m1224
-1 l33 -99 107 -5 108 -5 -87 -63 c-48 -35 -85 -69 -82 -75 27 -76 58 -179 54
-184 -3 -3 -43 22 -89 55 -47 35 -87 57 -93 53 -68 -53 -165 -120 -165 -114 0
4 14 51 32 105 32 97 32 98 13 112 -11 8 -51 37 -90 65 l-70 51 111 0 110 0
34 105 c19 57 35 103 37 101 2 -2 18 -48 37 -102z m1225 -6 l32 -97 107 -3
107 -3 -87 -63 -87 -62 35 -102 c18 -56 32 -103 31 -105 -2 -1 -40 24 -85 57
-45 33 -87 60 -94 60 -7 -1 -49 -27 -93 -59 -44 -33 -81 -58 -82 -57 -1 1 11
46 28 100 17 53 29 101 27 106 -2 5 -41 36 -87 69 l-84 61 111 0 112 0 32 105
c18 57 36 101 39 97 4 -4 21 -51 38 -104z m-3059 -518 l31 -99 111 -3 112 -3
-87 -63 c-48 -35 -87 -66 -87 -69 0 -3 14 -49 30 -101 17 -52 29 -96 27 -98
-2 -2 -40 23 -85 56 -45 33 -85 60 -88 60 -3 0 -43 -27 -89 -60 -46 -33 -85
-60 -88 -60 -3 0 10 46 29 102 19 56 31 105 27 109 -5 3 -44 33 -88 65 l-80
59 109 5 109 5 29 85 c36 109 36 110 42 110 3 0 19 -45 36 -100z m1225 -7 l29
-92 110 -3 111 -3 -88 -64 c-69 -50 -86 -68 -82 -82 4 -12 1 -19 -7 -19 -29 0
-156 -70 -218 -119 -35 -29 -66 -49 -67 -44 -2 5 10 49 27 98 16 49 30 92 30
96 0 4 -39 36 -87 71 l-88 63 110 3 111 3 33 100 c18 56 36 97 40 93 4 -5 20
-50 36 -101z m1221 4 l31 -92 109 -5 109 -5 -80 -59 c-44 -32 -83 -62 -88 -66
-4 -3 -2 -21 4 -39 6 -17 9 -35 6 -38 -3 -3 -27 2 -53 11 -60 20 -64 20 -64
-4 0 -11 -4 -20 -8 -20 -5 0 -46 -27 -92 -60 -46 -33 -85 -59 -86 -57 -2 2 10
45 26 97 17 52 28 100 26 106 -3 6 -42 38 -88 70 l-83 59 112 3 112 3 32 100
c18 55 35 97 38 94 3 -4 20 -48 37 -98z m1222 3 l33 -99 111 -3 110 -3 -90
-64 -89 -65 33 -100 c19 -55 32 -101 30 -103 -2 -3 -41 23 -87 57 -46 33 -89
58 -95 56 -7 -3 -47 -30 -89 -61 -42 -31 -78 -55 -81 -53 -2 3 11 50 30 105
l34 100 -90 64 -89 64 112 5 112 5 30 98 c17 53 33 97 36 97 4 0 21 -45 39
-100z m-2198 -1100 c0 -561 -3 -700 -13 -700 -7 0 -62 24 -123 54 -121 60
-244 147 -314 222 -25 26 -37 42 -27 35 15 -12 17 -10 17 18 0 17 -4 31 -10
31 -5 0 -10 14 -10 30 0 17 -4 30 -10 30 -5 0 -10 20 -10 45 0 25 -4 45 -10
45 -6 0 -10 62 -10 165 0 103 4 165 10 165 6 0 10 18 10 40 0 22 5 40 10 40 6
0 10 16 10 35 0 19 5 35 10 35 6 0 10 9 10 20 0 11 5 20 10 20 6 0 10 9 10 20
0 11 5 20 10 20 6 0 10 9 10 20 0 11 5 20 10 20 6 0 10 7 10 16 0 18 23 44 39
44 6 0 11 7 11 15 0 8 5 15 10 15 6 0 10 7 10 15 0 18 44 65 61 65 6 0 24 14
39 30 15 17 35 30 44 30 9 0 16 5 16 10 0 6 9 10 20 10 11 0 20 5 20 10 0 6
11 10 25 10 14 0 25 5 25 10 0 6 18 10 40 10 l40 0 0 -700z m-860 580 l31
-100 109 0 c61 0 110 -3 110 -7 -1 -5 -39 -35 -85 -68 -47 -32 -85 -61 -85
-64 0 -2 14 -47 30 -99 17 -52 28 -97 26 -100 -3 -3 -29 13 -58 35 -29 21 -67
49 -84 61 l-31 21 -83 -60 c-45 -33 -84 -58 -87 -55 -3 2 9 48 27 102 19 57
29 99 23 103 -57 37 -163 118 -163 124 0 4 49 7 108 7 l108 0 33 100 c18 55
34 100 36 100 2 0 18 -45 35 -100z m1225 -7 l29 -93 108 0 c59 0 108 -3 108
-7 0 -6 -103 -85 -162 -124 -4 -3 6 -49 23 -103 17 -54 28 -100 26 -103 -3 -2
-42 23 -87 56 l-83 60 -31 -21 c-17 -12 -55 -40 -84 -61 -29 -22 -54 -38 -57
-35 -2 2 9 46 25 98 16 52 30 97 30 100 0 3 -38 33 -85 65 -46 33 -84 63 -85
68 0 4 49 7 110 7 l109 0 32 101 c18 55 35 96 39 92 3 -4 19 -50 35 -100z
m-1692 -625 l109 -3 -80 -58 c-45 -31 -84 -62 -87 -67 -4 -6 8 -53 25 -106 18
-52 30 -97 28 -99 -2 -2 -39 23 -83 55 -44 33 -85 59 -91 60 -6 0 -47 -27 -92
-60 -45 -33 -84 -60 -86 -60 -3 0 11 46 30 102 19 56 34 103 34 104 0 2 -39
31 -87 66 l-88 63 109 5 109 5 35 105 35 105 36 -107 35 -107 109 -3z m2277
-9 c0 -160 -3 -209 -12 -209 -7 -1 -49 -27 -93 -60 -44 -33 -81 -56 -83 -52
-1 4 11 48 28 97 16 49 30 94 30 99 -1 6 -39 38 -86 71 l-85 60 110 3 110 3
32 104 c18 57 36 102 40 99 5 -3 9 -99 9 -215z m-1584 84 c-3 -4 -6 2 -5 13 0
11 3 14 6 6 3 -7 2 -16 -1 -19z m10 -70 c-3 -4 -6 2 -5 13 0 11 3 14 6 6 3 -7
2 -16 -1 -19z m83 -243 c11 -24 11 -24 -3 -6 -9 11 -16 24 -16 30 0 12 5 7 19
-24z m36 -56 c9 -15 12 -23 6 -20 -11 7 -35 46 -28 46 3 0 12 -12 22 -26z
m-354 -124 l33 -99 111 -3 110 -3 -80 -59 c-44 -32 -84 -62 -89 -66 -4 -5 6
-52 24 -105 18 -53 30 -98 27 -101 -2 -2 -31 15 -63 39 -32 24 -71 51 -86 61
l-26 17 -83 -60 c-45 -34 -84 -59 -86 -57 -4 3 38 150 54 192 2 6 -34 37 -81
70 -47 32 -85 62 -86 67 0 4 49 7 108 7 l108 0 28 88 c15 48 29 93 31 100 3 6
6 12 9 12 3 0 19 -45 37 -100z m1224 -4 l28 -96 108 0 c60 0 109 -3 109 -7 -1
-5 -39 -35 -86 -68 -49 -35 -82 -65 -80 -72 19 -48 58 -185 54 -188 -2 -3 -41
22 -86 56 -49 36 -87 57 -95 53 -6 -4 -45 -32 -85 -62 -41 -29 -76 -51 -79
-48 -3 2 10 49 27 102 38 112 47 90 -76 179 l-69 50 112 3 112 3 31 100 c17
55 34 98 39 95 4 -3 20 -48 36 -100z m-603 -548 l23 -77 108 -3 108 -3 -77
-55 c-42 -30 -81 -58 -86 -61 -7 -4 1 -42 21 -100 17 -52 31 -100 31 -106 0
-7 -39 16 -87 51 l-88 64 -50 -36 c-27 -20 -67 -49 -87 -65 -21 -16 -38 -24
-38 -18 0 6 14 54 31 107 18 58 27 99 21 103 -5 3 -44 31 -86 61 l-77 55 109
3 108 3 33 107 c33 106 34 107 46 77 8 -16 24 -65 37 -107z m604 -502 l29 -95
110 -3 110 -3 -80 -59 c-44 -32 -83 -62 -88 -65 -4 -4 8 -53 27 -109 19 -56
32 -102 29 -102 -3 0 -42 27 -88 60 -46 33 -86 60 -89 60 -4 0 -44 -27 -89
-60 -45 -33 -83 -57 -85 -52 -1 4 11 48 28 97 16 49 30 92 30 96 0 4 -39 36
-87 71 l-87 63 110 3 110 3 33 99 c18 55 36 98 40 96 4 -3 21 -48 37 -100z
m1220 7 l29 -98 108 -3 c59 -1 107 -6 107 -10 -1 -4 -38 -33 -84 -65 l-83 -59
32 -101 c18 -56 31 -104 30 -105 -2 -2 -38 22 -80 53 -42 31 -82 58 -89 61 -6
2 -50 -23 -96 -56 -46 -33 -85 -59 -87 -57 -1 2 11 43 27 92 17 49 30 95 30
102 0 7 -39 42 -86 76 l-85 62 110 3 110 3 33 99 c18 55 35 100 38 100 4 0 19
-44 36 -97z m-2216 -383 c8 -5 11 -10 5 -10 -5 0 -17 5 -25 10 -8 5 -10 10 -5
10 6 0 17 -5 25 -10z"/>
<path d="M2040 6606 c0 -3 5 -8 10 -11 6 -3 10 -1 10 4 0 6 -4 11 -10 11 -5 0
-10 -2 -10 -4z"/>
<path d="M5466 7905 c4 -8 8 -15 10 -15 2 0 4 7 4 15 0 8 -4 15 -10 15 -5 0
-7 -7 -4 -15z"/>
<path d="M786 5825 c23 -28 51 -58 62 -68 19 -17 20 -17 25 3 4 16 -6 29 -46
58 -80 59 -85 60 -41 7z"/>
<path d="M1400 5310 c0 -6 7 -10 15 -10 8 0 15 2 15 4 0 2 -7 6 -15 10 -8 3
-15 1 -15 -4z"/>
<path d="M5490 4626 c0 -4 20 -46 44 -94 72 -144 142 -337 171 -469 l7 -33
-807 0 c-642 0 -806 -3 -802 -12 32 -72 72 -186 89 -247 23 -89 35 -333 20
-423 l-9 -58 773 0 773 0 5 23 c12 55 -7 -120 -26 -233 -24 -149 -72 -320
-125 -448 l-39 -92 -2517 0 -2517 0 32 -52 c102 -165 289 -398 462 -575 l119
-123 1921 0 1921 -1 -35 -30 c-19 -16 -96 -70 -169 -120 -329 -220 -730 -362
-1198 -425 l-133 -18 0 -78 0 -78 -475 0 -475 0 0 -280 0 -280 470 0 470 0 3
178 3 177 -1 -180 0 -180 -367 -3 c-242 -1 -368 -6 -368 -12 0 -22 70 -80 95
-80 14 0 25 -4 25 -10 0 -6 105 -10 295 -10 190 0 295 4 295 10 0 6 11 10 25
10 37 0 95 61 95 100 0 16 5 30 10 30 6 0 10 78 10 215 0 137 4 215 10 215 6
0 10 9 10 20 0 11 5 20 10 20 6 0 10 9 10 21 0 22 22 49 39 49 6 0 11 5 11 10
0 6 9 10 20 10 11 0 20 5 20 10 0 6 9 10 20 10 11 0 20 5 20 10 0 6 18 10 40
10 22 0 40 5 40 10 0 6 25 10 55 10 30 0 55 5 55 10 0 6 23 10 50 10 28 0 50
5 50 10 0 6 23 10 50 10 28 0 50 5 50 10 0 6 16 10 35 10 19 0 35 5 35 10 0 6
18 10 40 10 22 0 40 5 40 10 0 6 14 10 30 10 20 0 30 5 30 15 0 10 11 15 35
15 19 0 35 5 35 10 0 6 9 10 20 10 11 0 20 5 20 10 0 6 14 10 30 10 17 0 30 5
30 10 0 6 9 10 20 10 11 0 20 5 20 10 0 6 14 10 30 10 17 0 30 5 30 10 0 6 11
10 25 10 14 0 25 5 25 10 0 6 9 10 20 10 11 0 20 5 20 10 0 6 8 10 18 10 10 0
24 9 32 20 8 11 22 20 32 20 10 0 18 5 18 10 0 6 7 10 16 10 18 0 44 23 44 39
0 6 10 11 23 11 12 0 29 9 37 20 8 11 21 20 30 20 9 0 22 9 30 20 8 11 21 20
28 20 7 0 31 18 52 40 21 22 46 40 54 40 9 0 16 5 16 10 0 6 5 10 10 10 11 0
60 45 60 55 0 3 41 46 90 95 50 49 90 96 90 105 0 8 5 15 11 15 12 0 39 25 39
37 0 5 9 15 20 23 11 8 20 21 20 30 0 9 9 22 20 30 11 8 20 21 20 30 0 9 9 22
20 30 11 8 20 21 20 30 0 9 9 22 20 30 11 8 20 25 20 37 0 13 5 23 10 23 6 0
10 9 10 20 0 11 5 20 10 20 6 0 10 9 10 20 0 11 7 20 15 20 8 0 15 9 15 20 0
11 5 20 10 20 6 0 10 9 10 20 0 11 5 20 10 20 6 0 10 9 10 20 0 11 5 20 10 20
6 0 10 16 10 35 0 19 5 35 10 35 6 0 10 9 10 20 0 11 5 20 10 20 6 0 10 14 10
30 0 17 5 30 10 30 6 0 10 18 10 40 0 22 5 40 10 40 6 0 10 16 10 35 0 19 5
35 10 35 6 0 10 23 10 50 0 28 5 50 10 50 6 0 10 28 10 65 0 37 4 65 10 65 6
0 10 33 10 80 0 47 4 80 10 80 6 0 10 70 10 190 0 120 -4 190 -10 190 -6 0
-10 33 -10 80 0 47 -4 80 -10 80 -6 0 -10 28 -10 65 0 37 -4 65 -10 65 -5 0
-10 23 -10 50 0 28 -4 50 -10 50 -5 0 -10 16 -10 35 0 19 -4 35 -10 35 -5 0
-10 18 -10 40 0 22 -4 40 -10 40 -5 0 -10 14 -10 30 0 17 -4 30 -10 30 -5 0
-10 9 -10 20 0 11 -4 20 -10 20 -5 0 -10 16 -10 35 0 19 -4 35 -10 35 -5 0
-10 9 -10 20 0 11 -4 20 -10 20 -5 0 -10 9 -10 20 0 11 -4 20 -10 20 -5 0 -10
9 -10 20 0 11 -7 20 -15 20 -8 0 -15 9 -15 20 0 11 -4 20 -10 20 -5 0 -10 9
-10 20 0 11 -4 20 -10 20 -5 0 -10 10 -10 23 0 12 -9 29 -20 37 -11 8 -20 22
-20 32 0 10 -4 18 -10 18 -5 0 -10 7 -10 16 0 8 -7 22 -15 30 -8 9 -15 13 -15
10z m236 -693 c-3 -4 -6 2 -5 13 0 11 3 14 6 6 3 -7 2 -16 -1 -19z m11 -55
c-3 -7 -5 -2 -5 12 0 14 2 19 5 13 2 -7 2 -19 0 -25z m10 -80 c-3 -7 -5 -2 -5
12 0 14 2 19 5 13 2 -7 2 -19 0 -25z m10 -105 c-3 -10 -5 -2 -5 17 0 19 2 27
5 18 2 -10 2 -26 0 -35z m10 -210 c-2 -16 -4 -5 -4 22 0 28 2 40 4 28 2 -13 2
-35 0 -50z"/>
<path d="M3450 3570 c0 -550 1 -1000 3 -1000 2 0 27 7 55 15 l52 16 0 839 c0
553 3 840 10 840 6 0 10 7 10 15 0 18 43 65 60 65 5 0 10 5 10 10 0 14 117 13
122 -1 2 -6 12 -10 22 -8 13 3 0 17 -50 53 -71 51 -259 155 -281 156 -10 0
-13 -207 -13 -1000z"/>
<path d="M2500 3660 l0 -370 470 0 470 0 0 370 0 370 -470 0 -470 0 0 -370z"/>
<path d="M895 3510 l-650 -218 768 -1 767 -1 -25 50 c-48 94 -17 50 46 -66 35
-64 65 -110 68 -103 2 7 -1 15 -7 17 -7 2 -12 12 -12 23 0 10 -4 19 -10 19 -5
0 -10 11 -10 25 0 14 -4 25 -10 25 -5 0 -10 9 -10 20 0 11 -4 20 -10 20 -5 0
-10 9 -10 20 0 11 -4 20 -10 20 -5 0 -10 7 -10 15 0 18 -44 65 -60 65 -6 0 -8
5 -5 10 3 6 1 10 -5 10 -6 0 -40 61 -75 135 -35 74 -68 135 -72 134 -4 0 -300
-99 -658 -219z"/>
<path d="M1906 3093 c45 -72 54 -82 54 -60 0 9 -4 17 -10 17 -5 0 -10 9 -10
20 0 11 -4 20 -10 20 -5 0 -10 7 -10 16 0 18 -23 44 -40 44 -6 0 6 -26 26 -57z"/>
<path d="M1960 3006 c0 -3 5 -8 10 -11 6 -3 10 -1 10 4 0 6 -4 11 -10 11 -5 0
-10 -2 -10 -4z"/>
<path d="M1540 1492 c0 -9 30 -32 42 -32 8 0 20 -9 28 -20 8 -11 25 -20 37
-20 13 0 23 -4 23 -10 0 -5 8 -10 18 -10 10 0 24 -9 32 -20 8 -11 22 -20 32
-20 10 0 18 -4 18 -10 0 -5 9 -10 20 -10 11 0 20 -4 20 -10 0 -5 9 -10 20 -10
11 0 20 -4 20 -10 0 -5 11 -10 25 -10 14 0 25 -4 25 -10 0 -5 14 -10 30 -10
17 0 30 -4 30 -10 0 -5 9 -10 20 -10 11 0 20 -7 20 -15 0 -10 10 -15 30 -15
17 0 30 -4 30 -10 0 -5 9 -10 20 -10 11 0 20 -4 20 -10 0 -5 16 -10 35 -10 19
0 35 -4 35 -10 0 -5 18 -10 40 -10 22 0 40 -4 40 -10 0 -5 18 -10 40 -10 22 0
40 -4 40 -10 0 -5 25 -10 55 -10 30 0 55 -4 55 -10 0 -5 14 -10 30 -10 29 0
30 2 30 45 0 44 -1 45 -31 45 -46 0 -222 29 -314 51 -159 39 -313 95 -462 169
-84 42 -153 74 -153 72z"/>
</g>
</svg>
