<?xml version="1.0" standalone="no"?>
<!DOCTYPE svg PUBLIC "-//W3C//DTD SVG 20010904//EN"
 "http://www.w3.org/TR/2001/REC-SVG-20010904/DTD/svg10.dtd">
<svg version="1.0" xmlns="http://www.w3.org/2000/svg"
 width="531.000000pt" height="527.000000pt" viewBox="0 0 531.000000 527.000000"
 preserveAspectRatio="xMidYMid meet">
<metadata>
Created by potrace 1.13, written by Peter Selinger 2001-2015
</metadata>
<g transform="translate(0.000000,527.000000) scale(0.100000,-0.100000)"
fill="#000000" stroke="none">
<path d="M2 5262 c2 -5 600 -597 1330 -1317 731 -720 1328 -1311 1328 -1315 0
-3 -598 -593 -1329 -1310 -731 -718 -1330 -1308 -1330 -1312 -1 -5 1194 -8
2654 -8 l2655 0 0 2635 0 2635 -2656 0 c-1461 0 -2654 -4 -2652 -8z m2692
-1350 c710 -700 1291 -1277 1291 -1282 0 -5 -596 -595 -1325 -1311 l-1325
-1302 -3 584 -2 584 722 723 723 724 -722 716 -723 717 0 595 0 594 36 -35
c20 -18 617 -607 1328 -1307z"/>
<path d="M0 2641 l0 -1424 138 134 c709 691 1302 1273 1302 1278 0 6 -240 245
-1112 1111 l-328 325 0 -1424z"/>
</g>
</svg>
